<svg xmlns="http://www.w3.org/2000/svg" width="199" height="36" fill="none" viewBox="0 0 199 36"><path fill="#000" d="M10.296 26L6.6 19.472H5.016V26H1.656V9.248H7.944C9.24 9.248 10.344 9.48 11.256 9.944C12.168 10.392 12.848 11.008 13.296 11.792C13.76 12.56 13.992 13.424 13.992 14.384C13.992 15.488 13.672 16.488 13.032 17.384C12.392 18.264 11.44 18.872 10.176 19.208L14.184 26H10.296ZM5.016 16.952H7.824C8.736 16.952 9.416 16.736 9.864 16.304C10.312 15.856 10.536 15.24 10.536 14.456C10.536 13.688 10.312 13.096 9.864 12.68C9.416 12.248 8.736 12.032 7.824 12.032H5.016V16.952ZM22.935 26.216C21.655 26.216 20.503 25.936 19.479 25.376C18.455 24.8 17.647 23.992 17.055 22.952C16.479 21.912 16.191 20.712 16.191 19.352C16.191 17.992 16.487 16.792 17.079 15.752C17.687 14.712 18.511 13.912 19.551 13.352C20.591 12.776 21.751 12.488 23.031 12.488C24.311 12.488 25.471 12.776 26.511 13.352C27.551 13.912 28.367 14.712 28.959 15.752C29.567 16.792 29.871 17.992 29.871 19.352C29.871 20.712 29.559 21.912 28.935 22.952C28.327 23.992 27.495 24.8 26.439 25.376C25.399 25.936 24.231 26.216 22.935 26.216ZM22.935 23.288C23.543 23.288 24.111 23.144 24.639 22.856C25.183 22.552 25.615 22.104 25.935 21.512C26.255 20.92 26.415 20.2 26.415 19.352C26.415 18.088 26.079 17.12 25.407 16.448C24.751 15.76 23.943 15.416 22.983 15.416C22.023 15.416 21.215 15.76 20.559 16.448C19.919 17.12 19.599 18.088 19.599 19.352C19.599 20.616 19.911 21.592 20.535 22.28C21.175 22.952 21.975 23.288 22.935 23.288ZM45.0557 12.704L36.8237 32.288H33.2477L36.1277 25.664L30.7997 12.704H34.5677L37.9997 21.992L41.4797 12.704H45.0557ZM46.0029 19.304C46.0029 17.96 46.2669 16.768 46.7949 15.728C47.3389 14.688 48.0669 13.888 48.9789 13.328C49.9069 12.768 50.9389 12.488 52.0749 12.488C53.0669 12.488 53.9309 12.688 54.6669 13.088C55.4189 13.488 56.0189 13.992 56.4669 14.6V12.704H59.8509V26H56.4669V24.056C56.0349 24.68 55.4349 25.2 54.6669 25.616C53.9149 26.016 53.0429 26.216 52.0509 26.216C50.9309 26.216 49.9069 25.928 48.9789 25.352C48.0669 24.776 47.3389 23.968 46.7949 22.928C46.2669 21.872 46.0029 20.664 46.0029 19.304ZM56.4669 19.352C56.4669 18.536 56.3069 17.84 55.9869 17.264C55.6669 16.672 55.2349 16.224 54.6909 15.92C54.1469 15.6 53.5629 15.44 52.9389 15.44C52.3149 15.44 51.7389 15.592 51.2109 15.896C50.6829 16.2 50.2509 16.648 49.9149 17.24C49.5949 17.816 49.4349 18.504 49.4349 19.304C49.4349 20.104 49.5949 20.808 49.9149 21.416C50.2509 22.008 50.6829 22.464 51.2109 22.784C51.7549 23.104 52.3309 23.264 52.9389 23.264C53.5629 23.264 54.1469 23.112 54.6909 22.808C55.2349 22.488 55.6669 22.04 55.9869 21.464C56.3069 20.872 56.4669 20.168 56.4669 19.352ZM66.4926 8.24V26H63.1326V8.24H66.4926ZM82.2923 28.952L79.7483 25.904C79.0443 26.08 78.3243 26.168 77.5883 26.168C76.0203 26.168 74.5803 25.8 73.2683 25.064C71.9563 24.328 70.9163 23.312 70.1483 22.016C69.3803 20.704 68.9963 19.224 68.9963 17.576C68.9963 15.944 69.3803 14.48 70.1483 13.184C70.9163 11.872 71.9563 10.848 73.2683 10.112C74.5803 9.376 76.0203 9.008 77.5883 9.008C79.1723 9.008 80.6123 9.376 81.9083 10.112C83.2203 10.848 84.2523 11.872 85.0043 13.184C85.7723 14.48 86.1563 15.944 86.1563 17.576C86.1563 19.064 85.8363 20.424 85.1963 21.656C84.5723 22.872 83.7163 23.864 82.6283 24.632L86.4683 28.952H82.2923ZM72.4523 17.576C72.4523 18.696 72.6683 19.68 73.1003 20.528C73.5323 21.376 74.1323 22.032 74.9003 22.496C75.6843 22.944 76.5803 23.168 77.5883 23.168C78.5963 23.168 79.4843 22.944 80.2523 22.496C81.0203 22.032 81.6203 21.376 82.0523 20.528C82.4843 19.68 82.7003 18.696 82.7003 17.576C82.7003 16.456 82.4843 15.48 82.0523 14.648C81.6203 13.8 81.0203 13.152 80.2523 12.704C79.4843 12.256 78.5963 12.032 77.5883 12.032C76.5803 12.032 75.6843 12.256 74.9003 12.704C74.1323 13.152 73.5323 13.8 73.1003 14.648C72.6683 15.48 72.4523 16.456 72.4523 17.576ZM98.9749 22.808H92.3029L91.1989 26H87.6709L93.6949 9.224H97.6069L103.631 26H100.079L98.9749 22.808ZM98.0629 20.12L95.6389 13.112L93.2149 20.12H98.0629ZM110.971 26.216C109.883 26.216 108.907 26.024 108.043 25.64C107.179 25.24 106.491 24.704 105.979 24.032C105.483 23.36 105.211 22.616 105.163 21.8H108.547C108.611 22.312 108.859 22.736 109.291 23.072C109.739 23.408 110.291 23.576 110.947 23.576C111.587 23.576 112.083 23.448 112.435 23.192C112.803 22.936 112.987 22.608 112.987 22.208C112.987 21.776 112.763 21.456 112.315 21.248C111.883 21.024 111.187 20.784 110.227 20.528C109.235 20.288 108.419 20.04 107.779 19.784C107.155 19.528 106.611 19.136 106.147 18.608C105.699 18.08 105.475 17.368 105.475 16.472C105.475 15.736 105.683 15.064 106.099 14.456C106.531 13.848 107.139 13.368 107.923 13.016C108.723 12.664 109.659 12.488 110.731 12.488C112.315 12.488 113.579 12.888 114.523 13.688C115.467 14.472 115.987 15.536 116.083 16.88H112.867C112.819 16.352 112.595 15.936 112.195 15.632C111.811 15.312 111.291 15.152 110.635 15.152C110.027 15.152 109.555 15.264 109.219 15.488C108.899 15.712 108.739 16.024 108.739 16.424C108.739 16.872 108.963 17.216 109.411 17.456C109.859 17.68 110.555 17.912 111.499 18.152C112.459 18.392 113.251 18.64 113.875 18.896C114.499 19.152 115.035 19.552 115.483 20.096C115.947 20.624 116.187 21.328 116.203 22.208C116.203 22.976 115.987 23.664 115.555 24.272C115.139 24.88 114.531 25.36 113.731 25.712C112.947 26.048 112.027 26.216 110.971 26.216ZM124.049 26.216C122.961 26.216 121.985 26.024 121.121 25.64C120.257 25.24 119.569 24.704 119.057 24.032C118.561 23.36 118.289 22.616 118.241 21.8H121.625C121.689 22.312 121.937 22.736 122.369 23.072C122.817 23.408 123.369 23.576 124.025 23.576C124.665 23.576 125.161 23.448 125.513 23.192C125.881 22.936 126.065 22.608 126.065 22.208C126.065 21.776 125.841 21.456 125.393 21.248C124.961 21.024 124.265 20.784 123.305 20.528C122.313 20.288 121.497 20.04 120.857 19.784C120.233 19.528 119.689 19.136 119.225 18.608C118.777 18.08 118.553 17.368 118.553 16.472C118.553 15.736 118.761 15.064 119.177 14.456C119.609 13.848 120.217 13.368 121.001 13.016C121.801 12.664 122.737 12.488 123.809 12.488C125.393 12.488 126.657 12.888 127.601 13.688C128.545 14.472 129.065 15.536 129.161 16.88H125.945C125.897 16.352 125.673 15.936 125.273 15.632C124.889 15.312 124.369 15.152 123.713 15.152C123.105 15.152 122.633 15.264 122.297 15.488C121.977 15.712 121.817 16.024 121.817 16.424C121.817 16.872 122.041 17.216 122.489 17.456C122.937 17.68 123.633 17.912 124.577 18.152C125.537 18.392 126.329 18.64 126.953 18.896C127.577 19.152 128.113 19.552 128.561 20.096C129.025 20.624 129.265 21.328 129.281 22.208C129.281 22.976 129.065 23.664 128.633 24.272C128.217 24.88 127.609 25.36 126.809 25.712C126.025 26.048 125.105 26.216 124.049 26.216ZM133.743 11.12C133.151 11.12 132.655 10.936 132.255 10.568C131.871 10.184 131.679 9.712 131.679 9.152C131.679 8.592 131.871 8.128 132.255 7.76C132.655 7.376 133.151 7.184 133.743 7.184C134.335 7.184 134.823 7.376 135.207 7.76C135.607 8.128 135.807 8.592 135.807 9.152C135.807 9.712 135.607 10.184 135.207 10.568C134.823 10.936 134.335 11.12 133.743 11.12ZM135.399 12.704V26H132.039V12.704H135.399ZM142.631 15.464V21.896C142.631 22.344 142.735 22.672 142.943 22.88C143.167 23.072 143.535 23.168 144.047 23.168H145.607V26H143.495C140.663 26 139.247 24.624 139.247 21.872V15.464H137.663V12.704H139.247V9.416H142.631V12.704H145.607V15.464H142.631ZM147.159 19.304C147.159 17.96 147.423 16.768 147.951 15.728C148.495 14.688 149.223 13.888 150.135 13.328C151.063 12.768 152.095 12.488 153.231 12.488C154.223 12.488 155.087 12.688 155.823 13.088C156.575 13.488 157.175 13.992 157.623 14.6V12.704H161.007V26H157.623V24.056C157.191 24.68 156.591 25.2 155.823 25.616C155.071 26.016 154.199 26.216 153.207 26.216C152.087 26.216 151.063 25.928 150.135 25.352C149.223 24.776 148.495 23.968 147.951 22.928C147.423 21.872 147.159 20.664 147.159 19.304ZM157.623 19.352C157.623 18.536 157.463 17.84 157.143 17.264C156.823 16.672 156.391 16.224 155.847 15.92C155.303 15.6 154.719 15.44 154.095 15.44C153.471 15.44 152.895 15.592 152.367 15.896C151.839 16.2 151.407 16.648 151.071 17.24C150.751 17.816 150.591 18.504 150.591 19.304C150.591 20.104 150.751 20.808 151.071 21.416C151.407 22.008 151.839 22.464 152.367 22.784C152.911 23.104 153.487 23.264 154.095 23.264C154.719 23.264 155.303 23.112 155.847 22.808C156.391 22.488 156.823 22.04 157.143 21.464C157.463 20.872 157.623 20.168 157.623 19.352ZM171.657 12.512C173.241 12.512 174.521 13.016 175.497 14.024C176.473 15.016 176.961 16.408 176.961 18.2V26H173.601V18.656C173.601 17.6 173.337 16.792 172.809 16.232C172.281 15.656 171.561 15.368 170.649 15.368C169.721 15.368 168.985 15.656 168.441 16.232C167.913 16.792 167.649 17.6 167.649 18.656V26H164.289V12.704H167.649V14.36C168.097 13.784 168.665 13.336 169.353 13.016C170.057 12.68 170.825 12.512 171.657 12.512ZM184.068 15.464V21.896C184.068 22.344 184.172 22.672 184.38 22.88C184.604 23.072 184.972 23.168 185.484 23.168H187.044V26H184.932C182.1 26 180.684 24.624 180.684 21.872V15.464H179.1V12.704H180.684V9.416H184.068V12.704H187.044V15.464H184.068Z"/><path fill="#000" stroke="#000" d="M197 12L191 18V12H197Z"/></svg>